<svg width="80" height="45" viewBox="0 0 80 45" fill="none" xmlns="http://www.w3.org/2000/svg">
<g clip-path="url(#clip0_0_32)">
<path d="M56.484 28.904C55.3817 29.1566 52.4807 29.302 52.4807 29.302L52.1133 30.4502C52.1133 30.4502 53.56 30.3277 54.6163 30.4349C54.6163 30.4349 54.9607 30.3966 54.999 30.8253C55.0061 31.1012 54.9958 31.3773 54.9684 31.652C54.9684 31.652 54.9454 31.9122 54.578 31.9735C54.18 32.0424 51.455 32.1419 51.455 32.1419L51.011 33.6345C51.011 33.6345 50.8503 33.979 51.2177 33.8794C51.5621 33.7876 54.4173 33.2518 54.7923 33.3283C55.1904 33.4278 55.6343 33.956 55.5042 34.4459C55.3511 35.0429 52.5036 36.8647 50.7661 36.7346C50.7661 36.7346 49.8552 36.7958 49.0821 35.5634C48.3625 34.3923 49.3576 32.1648 49.3576 32.1648C49.3576 32.1648 48.906 31.1238 49.2352 30.7794C49.2352 30.7794 49.4342 30.6033 50.0006 30.5574L50.6972 29.1107C50.6972 29.1107 49.9011 29.1643 49.4265 28.5825C48.9826 28.0237 48.9519 27.7711 49.2887 27.618C49.6485 27.442 52.9629 26.8373 55.244 26.9138C55.244 26.9138 56.04 26.8373 56.7213 28.2151C56.7136 28.2151 57.0504 28.7739 56.484 28.904ZM47.9033 34.4612C47.6124 35.1501 46.8393 35.8849 45.8825 35.4257C44.9257 34.9664 43.4254 31.8816 43.4254 31.8816C43.4254 31.8816 42.8513 30.7334 42.7441 30.7564C42.7441 30.7564 42.6217 30.5344 42.5451 31.7898C42.4686 33.0451 42.5604 35.4869 42.0629 35.8696C41.5883 36.2523 41.0142 36.0993 40.7157 35.6476C40.4478 35.2037 40.333 34.1474 40.4784 32.295C40.6544 30.4426 41.0831 28.4677 41.6342 27.8477C42.1853 27.2277 42.6293 27.6793 42.7977 27.84C42.7977 27.84 43.5325 28.506 44.7496 30.4655L44.9639 30.8253C44.9639 30.8253 46.0662 32.6777 46.181 32.67C46.181 32.67 46.2729 32.7542 46.3494 32.693C46.4642 32.6624 46.4183 32.0653 46.4183 32.0653C46.4183 32.0653 46.1887 30.0522 45.1859 26.6383C45.1859 26.6383 45.0328 26.2096 45.14 25.8116C45.2472 25.4135 45.6452 25.5973 45.6452 25.5973C45.6452 25.5973 47.2067 26.378 47.9569 28.9193C48.6993 31.4836 48.1941 33.7723 47.9033 34.4612ZM40.2334 27.9319C40.1033 28.1921 40.0268 28.5672 39.3685 28.6667C39.3685 28.6667 33.0688 29.0954 32.7703 29.5393C32.7703 29.5393 32.5483 29.7996 32.8928 29.8761C33.2372 29.9527 34.661 30.1364 35.3499 30.1747C36.0847 30.1823 38.5648 30.2053 39.4527 31.3152C39.4527 31.3152 39.9809 31.8433 39.9579 33.0374C39.9349 34.2622 39.7206 34.6908 39.246 35.1348C38.7485 35.5481 34.4772 37.4618 31.7216 34.5224C31.7216 34.5224 30.451 33.1063 32.1579 32.0347C32.1579 32.0347 33.3903 31.2922 36.521 32.1648C36.521 32.1648 37.4702 32.5093 37.4242 32.8537C37.3707 33.2212 36.6435 33.6115 35.5872 33.5886C34.5614 33.558 33.8113 33.0681 33.9567 33.1446C34.0945 33.1982 32.8545 32.5476 32.4718 32.9915C32.089 33.3972 32.1809 33.6498 32.556 33.9024C33.5128 34.4459 37.2099 34.2545 38.3122 33.0298C38.3122 33.0298 38.7485 32.5323 38.0825 32.1266C37.4166 31.7438 35.5106 31.5142 34.7681 31.4759C34.0563 31.4377 31.4078 31.4836 31.0251 30.7794C31.0251 30.7794 30.6423 30.3048 31.0633 28.9576C31.5073 27.5492 34.5921 27.0057 35.924 26.8832C35.924 26.8832 39.5905 26.7531 40.2641 27.5032C40.3096 27.6447 40.2986 27.7983 40.2334 27.9319ZM29.8233 36.1911C29.3793 36.5203 28.4378 36.3748 28.1699 36.0074C27.902 35.6783 27.8102 34.3693 27.8637 32.3179C27.9173 30.2435 27.9633 27.6716 28.4072 27.2659C28.8818 26.8526 29.1727 27.2124 29.3564 27.4956C29.5554 27.7711 29.7927 28.0773 29.8463 28.728C29.8998 29.3786 30.0453 32.7925 30.0453 32.7925C30.0453 32.7925 30.2443 35.8696 29.8233 36.1911ZM30.7801 25.1839C29.4865 25.6126 28.5986 25.4671 27.8484 25.1456C27.5193 25.7197 27.3279 25.8958 27.0753 25.9341C26.7079 25.9723 26.3788 25.3829 26.3175 25.1916C26.2563 25.0461 26.0802 24.8012 26.2946 24.2194C25.5597 23.5612 25.5062 22.6732 25.6286 22.0762C25.8123 21.3873 27.0524 18.7694 30.826 18.4632C30.826 18.4632 32.6708 18.3255 32.9846 19.3129H33.0382C33.0382 19.3129 34.8294 19.3206 34.7911 20.9127C34.7681 22.5125 32.8009 24.5027 30.7801 25.1839ZM27.259 21.6399C26.8763 22.2522 26.861 22.6196 27.0371 22.8722C27.4734 22.2063 28.2694 21.1576 29.4406 20.3616C28.5373 20.4381 27.7795 20.8285 27.259 21.6399ZM32.4718 20.6142C31.2853 20.7902 29.4482 22.3824 28.5756 23.6836C29.9152 23.9286 32.2804 23.8367 33.3291 21.7011C33.3214 21.7011 33.8266 20.3769 32.4718 20.6142ZM64.682 32.9456C63.9701 34.1856 61.9723 36.7729 59.3085 36.1681C58.4282 38.3038 57.6934 40.4547 57.2724 43.6849C57.2724 43.6849 57.1805 44.3126 56.66 44.0906C56.1472 43.9069 55.2899 43.0496 55.1215 41.8631C54.9378 40.3016 55.6343 37.6608 57.0504 34.6372C56.6371 33.9636 56.3539 32.9992 56.5988 31.629C56.5988 31.629 56.9586 29.0877 59.5075 26.7914C59.5075 26.7914 59.8137 26.5235 59.9898 26.6077C60.1888 26.6919 60.0969 27.5185 59.9362 27.9166C59.7754 28.3146 58.6349 30.2895 58.6349 30.2895C58.6349 30.2895 57.923 31.6214 58.1221 32.67C59.4616 30.611 62.5081 26.4546 64.3988 27.7635C65.0341 28.2151 65.325 29.2025 65.325 30.2665C65.3173 31.208 65.0953 32.2031 64.682 32.9456ZM64.1309 29.6848C64.1309 29.6848 64.0237 28.8657 63.2276 29.769C62.5387 30.5268 61.2987 31.9582 60.2959 33.8948C61.3446 33.7799 62.355 33.2058 62.6612 32.915C63.1587 32.471 64.3146 31.2769 64.1309 29.6848ZM26.9682 30.7258C26.8227 32.5782 26.1109 35.6936 21.0665 37.2321C17.7368 38.2349 14.5908 37.7526 12.8762 37.3163C12.8379 37.9976 12.7614 38.2885 12.6542 38.4033C12.5088 38.5487 11.4218 39.1764 10.8248 38.2885C10.5569 37.8675 10.4191 37.102 10.3426 36.4207C6.48467 34.6449 4.70883 32.0883 4.63993 31.9735C4.55573 31.8893 3.67547 30.9707 4.55573 29.8455C5.38242 28.8275 8.08447 27.8094 10.5186 27.3961C10.6028 25.314 10.8477 23.7449 11.1386 23.0253C11.4907 22.191 11.9347 22.9411 12.3174 23.5076C12.6389 23.9286 12.8303 25.7427 12.8456 27.1894C14.4377 27.1129 15.3792 27.2277 17.1551 27.5492C19.4667 27.9702 21.013 29.149 20.8752 30.4885C20.7757 31.8051 19.5662 32.3485 19.107 32.3868C18.6247 32.4251 17.8746 32.0806 17.8746 32.0806C17.3617 31.8357 17.8363 31.6214 18.4563 31.3535C19.1299 31.0243 18.9768 30.6875 18.9768 30.6875C18.7242 29.9527 15.7237 29.4398 12.7384 29.4398C12.7231 31.0855 12.8073 33.8182 12.8456 35.4103C14.9353 35.8084 16.4968 35.7318 16.4968 35.7318C16.4968 35.7318 24.1207 35.5175 24.3503 30.6492C24.58 25.781 16.7494 21.0964 10.9549 19.6114C5.1681 18.0958 1.89196 19.1522 1.60874 19.2976C1.30256 19.4507 1.58578 19.4966 1.58578 19.4966C1.8773 19.5498 2.16401 19.6266 2.44309 19.7262C3.01718 19.9099 2.57321 20.2085 2.57321 20.2085C1.58578 20.5223 0.475876 20.3233 0.26155 19.8717C0.0472232 19.4201 0.406986 19.0144 0.82033 18.4326C1.23367 17.8203 1.68529 17.8432 1.68529 17.8432C8.84227 15.3632 17.5608 19.8487 17.5608 19.8487C25.7281 23.9898 27.1213 28.8428 26.9682 30.7258ZM5.36711 30.4732C4.55573 30.8712 5.11451 31.4453 5.11451 31.4453C6.63776 33.0834 8.51312 34.1091 10.2966 34.7444C10.5033 31.9199 10.4727 30.9248 10.4956 29.5011C7.7094 29.6924 6.10195 30.1364 5.36711 30.4732Z" fill="white"/>
<path d="M79.838 29.8915V30.9019C79.8384 30.9543 79.8284 31.0063 79.8085 31.0547C79.7886 31.1032 79.7593 31.1473 79.7223 31.1843C79.6853 31.2213 79.6412 31.2506 79.5927 31.2705C79.5443 31.2904 79.4923 31.3004 79.4399 31.3H74.6252C74.6252 31.5526 74.6329 31.7745 74.6329 31.9812C74.6397 33.344 74.5707 34.706 74.4262 36.0611C74.417 36.1586 74.372 36.2493 74.2999 36.3157C74.2279 36.3821 74.1338 36.4196 74.0358 36.4208H72.9948C72.9429 36.4209 72.8915 36.41 72.844 36.3889C72.7965 36.3678 72.754 36.337 72.7193 36.2984C72.6838 36.2594 72.6572 36.2133 72.6414 36.163C72.6255 36.1128 72.6207 36.0597 72.6274 36.0075C72.774 34.6705 72.8455 33.3263 72.8417 31.9812C72.8417 31.7669 72.8417 31.5449 72.8341 31.3H68.073C68.0206 31.3004 67.9686 31.2904 67.9202 31.2705C67.8717 31.2506 67.8277 31.2213 67.7906 31.1843C67.7536 31.1473 67.7243 31.1032 67.7044 31.0547C67.6845 31.0063 67.6745 30.9543 67.6749 30.9019V29.8915C67.6745 29.8392 67.6845 29.7872 67.7044 29.7387C67.7243 29.6903 67.7536 29.6462 67.7906 29.6092C67.8277 29.5721 67.8717 29.5428 67.9202 29.523C67.9686 29.5031 68.0206 29.4931 68.073 29.4935H72.7652C72.6704 27.8686 72.4632 26.2522 72.1452 24.6558C72.1369 24.6076 72.1387 24.5583 72.1506 24.5108C72.1625 24.4634 72.1841 24.4189 72.2141 24.3803C72.2442 24.3422 72.2826 24.3114 72.3264 24.2902C72.3701 24.269 72.4181 24.2579 72.4667 24.2578H73.5919C73.6771 24.2582 73.7596 24.2882 73.8252 24.3427C73.8908 24.3971 73.9355 24.4726 73.9516 24.5563C74.2611 26.1873 74.4656 27.8364 74.564 29.4935H79.4399C79.5449 29.4953 79.6452 29.5378 79.7194 29.612C79.7937 29.6863 79.8362 29.7865 79.838 29.8915Z" fill="white"/>
<path d="M73.2857 21.877C70.9856 16.2199 67.187 11.2967 62.2985 7.63667C57.41 3.97667 51.6164 1.71829 45.5405 1.10432C39.4646 0.490361 33.3363 1.54404 27.8144 4.15207C22.2925 6.76011 17.5858 10.8239 14.2005 15.9064C14.1668 15.9565 14.1452 16.0136 14.1372 16.0733C14.1293 16.133 14.1352 16.1938 14.1545 16.2509C14.1725 16.3085 14.2042 16.3608 14.2469 16.4035C14.2895 16.4461 14.3419 16.4778 14.3995 16.4958L15.2721 16.7944C15.3218 16.8089 15.3733 16.8167 15.4252 16.8173C15.5049 16.8162 15.5833 16.7962 15.6538 16.759C15.7243 16.7217 15.785 16.6683 15.8309 16.603C18.7467 12.306 22.6704 8.78839 27.2591 6.35729C31.8477 3.92619 36.9619 2.65559 42.1548 2.65647C48.4112 2.65754 54.5288 4.5013 59.7439 7.95761C64.959 11.4139 69.0406 16.3297 71.4792 22.0913C71.5138 22.1746 71.5722 22.2459 71.6471 22.2963C71.7219 22.3467 71.81 22.3739 71.9002 22.3745H72.9412C73.0005 22.3752 73.059 22.3607 73.1112 22.3326C73.1634 22.3045 73.2077 22.2636 73.2398 22.2138C73.2767 22.1668 73.3005 22.1108 73.3086 22.0516C73.3166 21.9924 73.3087 21.9321 73.2857 21.877ZM71.6859 22.2367C71.7071 22.2524 71.7303 22.2652 71.7548 22.275C71.7318 22.2597 71.7089 22.252 71.6859 22.2367Z" fill="url(#paint0_radial_0_32)"/>
</g>
<defs>
<radialGradient id="paint0_radial_0_32" cx="0" cy="0" r="1" gradientUnits="userSpaceOnUse" gradientTransform="translate(72.3074 22.3362) scale(58.1835 58.1835)">
<stop offset="0.01" stop-color="white"/>
<stop offset="0.03" stop-color="#CBFFFF"/>
<stop offset="0.06" stop-color="#96FFFF"/>
<stop offset="0.08" stop-color="#68FFFF"/>
<stop offset="0.11" stop-color="#43FFFF"/>
<stop offset="0.14" stop-color="#25FFFF"/>
<stop offset="0.16" stop-color="#11FFFF"/>
<stop offset="0.19" stop-color="#04FFFF"/>
<stop offset="0.22" stop-color="#00FFFF"/>
<stop offset="1" stop-color="#0000FF" stop-opacity="0"/>
</radialGradient>
<clipPath id="clip0_0_32">
<rect width="79.9821" height="43.5312" fill="white" transform="translate(0.00897217 0.78125)"/>
</clipPath>
</defs>
</svg>
